<svg id="Layer_1" data-name="Layer 1" xmlns="http://www.w3.org/2000/svg" viewBox="0 0 162 162"><defs><style>.cls-1{fill:#fed137;}.cls-2{fill:#fff;}</style></defs><circle class="cls-1" cx="81" cy="81" r="80.16"/><path class="cls-2" d="M40.58,33.62h80.84a8.92,8.92,0,0,1,8.92,8.92v65.23a0,0,0,0,1,0,0H31.67a0,0,0,0,1,0,0V42.54A8.92,8.92,0,0,1,40.58,33.62Z"/><rect class="cls-1" x="41.67" y="43.73" width="78" height="54.12"/><path class="cls-2" d="M23,110.38H139a3.35,3.35,0,0,1,3.35,3.35V116A12.37,12.37,0,0,1,130,128.38H32A12.37,12.37,0,0,1,19.67,116v-2.28A3.35,3.35,0,0,1,23,110.38Z"/><rect class="cls-1" x="73.83" y="108.5" width="14.35" height="5.31" rx="2.65"/></svg>