<svg id="Layer_1" data-name="Layer 1" xmlns="http://www.w3.org/2000/svg" viewBox="0 0 160.4 160.79"><defs><style>.cls-1{fill:#fed137;}.cls-2{fill:#fff;}</style></defs><circle class="cls-1" cx="80.16" cy="80.16" r="80.16"/><rect class="cls-2" x="27.79" y="40.26" width="26.35" height="13.29" rx="3.19"/><path class="cls-2" d="M61.83,105.86,43.14,48.14a5.29,5.29,0,0,1,2.73-6.52l2.62-1.06a4.44,4.44,0,0,1,5.82,3L73,101.33a5.29,5.29,0,0,1-2.73,6.52l-2.61,1.06A4.44,4.44,0,0,1,61.83,105.86Z"/><rect class="cls-2" x="62.98" y="96.34" width="57.22" height="13.29" rx="3.19"/><path class="cls-2" d="M122.21,89.26l10.14-31.33a3.3,3.3,0,0,0-1.71-4.09l-5.79-2.35a2.79,2.79,0,0,0-3.66,1.92L111.05,84.73a3.31,3.31,0,0,0,1.71,4.09l5.8,2.35A2.77,2.77,0,0,0,122.21,89.26Z"/><rect class="cls-2" x="64.47" y="78.2" width="57.22" height="13.29" rx="3.19"/><rect class="cls-2" x="52.56" y="49.58" width="79.79" height="13.29" rx="3.19"/><rect class="cls-2" x="59.84" y="60.26" width="60.37" height="20.88" rx="3.19"/><ellipse class="cls-2" cx="66.43" cy="111.52" rx="7.63" ry="8.54"/><ellipse class="cls-2" cx="115.59" cy="111.52" rx="7.63" ry="8.54"/></svg>